<svg width="293" height="304" viewBox="0 0 293 304" fill="none" xmlns="http://www.w3.org/2000/svg">
<rect width="292.5" height="304" fill="black"/>
<path d="M65 198.5V105.5L145.5 59L227.5 107L191.5 128L152 105.5L117.5 125.5V168L65 198.5L108 223.339L191.5 177.5L227.5 198.5L145.5 245L108 223.339L65 198.5Z" fill="#D9D9D9"/>
<path d="M65 198.5V105.5L145.5 59L227.5 107L191.5 128L152 105.5L117.5 125.5V168L65 198.5ZM65 198.5L108 223.339M108 223.339L191.5 177.5L227.5 198.5L145.5 245L108 223.339Z" stroke="white"/>
</svg>
